<?xml version="1.0" encoding="utf-8" ?><svg xmlns="http://www.w3.org/2000/svg" xmlns:xlink="http://www.w3.org/1999/xlink" width="1080" height="1920" viewBox="0 0 1080 1920"><path fill="#05062B" d="M455 629.464C460.738 624.297 468.496 620.96 475.435 617.667C560.687 577.213 665.018 603.799 726.996 672.882C767.08 717.483 787.764 776.204 784.483 836.08C783.357 856.382 778.471 877.1 771.868 896.292L767.105 893.396C771.288 874.184 773.988 853.474 773.497 833.764C772.339 787.277 758.117 725.261 723.526 691.854C730.221 703.51 736.19 715.568 741.4 727.959C744.957 736.451 754.921 759.505 751.396 768.125C747.439 769.563 741.997 758.636 738.746 755.63C732.664 750.007 716.398 741.39 712.903 754.411C715.99 764.344 744.582 761.319 728.331 786.242C709.086 815.756 688.251 763.039 665.313 767.177C660.956 767.964 659.52 767.228 656.559 770.665L656.839 772.191C684.543 780.887 676.954 788.854 697.605 804.51C703.253 808.792 724.772 808.732 726.591 814.06C730.993 826.959 718.536 844.015 715.44 856.299C709.51 877.918 725.201 902.717 714.374 923.74C702.316 947.156 690.554 957.608 670.083 936.847C655.17 921.724 649.292 910.204 642.37 890.105C639.317 881.24 634.284 871.674 625.151 868.504C602.722 858.173 591.577 887.776 568.315 876.327C529.174 857.065 532.86 825.323 547.711 791.379C552.786 791.626 557.859 791.906 562.93 792.217C573.174 787.068 583.297 777.697 593.933 774.593C608.552 770.326 623.028 787.305 631.37 767.399C641.977 768.552 647.42 768.831 657.913 767.14C679.298 750.822 654.549 731.535 637.74 726.831C643.344 720.46 647.996 716.439 646.142 707.163C644.393 698.416 639.172 698.389 631.759 699.306C620.272 699.036 605.373 715.271 596.537 716.417C583.13 718.156 593.689 699.581 600.415 697.194C602.144 696.58 607.693 691.161 607.321 689.503C606.052 683.849 606.633 681.451 610.695 676.972C618.588 667.403 604.069 660.886 602.311 652.406C601.263 643.21 613.391 639.269 611.196 627.942C608.761 612.567 583.655 609.821 571.014 609.189C542.208 607.749 509.957 610.877 483.205 622.486C479.086 624.273 473.391 627.489 469.021 628.008C463.665 628.283 460.288 628.605 455 629.464Z"/><path fill="#05062B" d="M455 629.464C460.288 628.605 463.665 628.283 469.021 628.008C465.093 631.378 460.84 634.89 457.026 638.343C473.123 639.152 490.791 638.426 502.781 651.495C509.021 658.084 511.668 669.913 504.589 676.858C503.255 678.167 499.901 679.178 498.279 678.357C482.762 670.502 457.528 672.28 452.623 694.28C451.332 700.078 452.398 706.152 455.586 711.164C467.129 728.975 487.847 688.253 490.798 688.813C504.858 691.478 513.531 726.7 501.517 739.056C495.066 742.371 477.182 740.363 469.913 744.752C457.514 752.239 451.006 766.703 439.649 776.682C424.284 790.183 409.719 782.638 401.05 804.817C399.02 810.01 401.523 815.427 403.688 820.321C407.836 820.127 413.584 819.385 417.195 821.017C421.943 826.257 419.088 831.611 419.91 839.224C416.825 840.201 412.794 841.345 409.84 842.439C396.823 828.272 395.025 836.429 383.993 812.097C374.719 843.957 378.99 864.98 390.11 895.21C388.704 894.653 387.307 894.073 385.92 893.469C376.599 889.381 371.201 882.098 367.628 872.775C348.96 824.06 349.066 772.988 370.704 725.307C385.189 693.387 405.286 666.944 432.427 644.693C438.595 639.637 447.586 632.303 455 629.464Z"/><path fill="#05062B" d="M161.345 1045.46C190.04 1043.99 214.535 1065.97 216.16 1094.66C217.786 1123.34 195.931 1147.95 167.253 1149.73C138.36 1151.52 113.525 1129.47 111.887 1100.56C110.249 1071.66 132.435 1046.94 161.345 1045.46ZM169.995 1142.41C200.71 1127.65 202.372 1067.5 170.241 1053.48C166.731 1051.95 161.354 1052.62 157.61 1053.04C121.714 1071.34 129.553 1148.39 169.995 1142.41Z"/><path fill="#05062B" d="M802.106 1045.48C830.771 1043.9 855.33 1065.77 857.086 1094.42C858.842 1123.08 837.137 1147.78 808.494 1149.71C779.591 1151.67 754.619 1129.73 752.847 1100.81C751.074 1071.9 773.18 1047.06 802.106 1045.48ZM810.603 1142.58C841.865 1127.41 843.444 1066.96 810.579 1053.3C807.436 1052 802.179 1052.63 798.82 1052.98C763.027 1070.6 769.435 1146.82 810.603 1142.58Z"/><path fill="#05062B" d="M409.84 842.439C412.794 841.345 416.825 840.201 419.91 839.224C435.464 847.236 453.649 848.002 470.846 854.742C491.343 862.776 509.357 881.69 528.164 888.995C563.392 902.679 571.232 894.365 559.315 937.817C527.69 936.751 486.757 925.157 456.047 916.445C443.589 912.912 435.943 904.851 437.922 891.058C441.761 864.311 429.108 856.423 409.84 842.439Z"/><path fill="#05062B" d="M953.102 1043.81C969.251 1043.69 999.072 1042.07 1014.14 1045.06C1042.09 1050.61 1045.09 1087.51 1018.96 1102.56C1033.85 1125.69 1036.39 1140.44 1063.05 1151.71C1048.63 1151.9 1038.47 1153.43 1025.69 1146.04C1016.21 1138.85 1004.26 1116.07 997.906 1105.27L984.196 1105.29C984.355 1123.49 980.193 1138.13 992.303 1151.48C979.707 1151.75 966.393 1151.55 953.738 1151.54C955.537 1149.47 960.439 1143.68 960.73 1140.93C963.266 1116.9 961.437 1090.4 961.872 1066.06C962.075 1054.68 960.517 1050.9 953.102 1043.81ZM984.197 1097.98C993.198 1098.07 1003.27 1099.3 1010.25 1093.07C1014.83 1085.16 1017.74 1074.39 1015.26 1065.4C1013.95 1060.46 1010.69 1056.27 1006.22 1053.8C999.206 1049.96 991.972 1050.8 984.182 1051.19L984.197 1097.98Z"/><path fill="#05062B" d="M722.065 1043.8L752.696 1043.69C751.732 1044.69 750.791 1045.7 749.874 1046.74C744.02 1053.42 744.159 1058.55 744.165 1067.13C744.181 1089.72 743.842 1112.34 744.333 1134.92C744.501 1142.59 747.521 1146.42 753.022 1151.24C739.947 1151.34 726.87 1151.33 713.795 1151.21C723.858 1140.52 722.165 1131.51 722.193 1117.51C722.213 1107.37 722.055 1097.17 721.993 1087.03L722.028 1059.61C707.809 1089.61 693.924 1121.94 680.121 1152.34C667.633 1124.18 652.436 1094.91 639.234 1066.63C639.132 1087.95 638.846 1109.83 639.16 1131.16C639.286 1139.79 641.7 1145.63 648.076 1151.23C640.177 1151.31 632.147 1151.21 624.235 1151.2C625.052 1150.43 625.853 1149.64 626.638 1148.83C632.872 1142.4 632.95 1137.12 632.98 1128.51C633.047 1108.63 633.113 1088.74 632.955 1068.87C632.854 1056.07 632.173 1052.73 622.922 1043.81L650.389 1043.72C661.97 1069.16 675.549 1096.07 687.647 1121.51L722.065 1043.8Z"/><path fill="#05062B" d="M216.01 1044.32C228.435 1044.37 267.941 1043.16 277.555 1045.49C282.335 1046.61 286.734 1048.98 290.306 1052.34C302.67 1063.97 301.731 1085.24 289.891 1096.87C278.956 1107.61 261.16 1105.46 246.898 1105.35L246.772 1115.16C246.549 1129.74 244.105 1140.69 255.591 1151.29C242.507 1151.46 229.421 1151.46 216.337 1151.3C217.246 1150.4 218.138 1149.49 219.01 1148.56C224.323 1142.87 224.866 1137.11 224.897 1129.53C224.985 1107.72 225.109 1085.89 224.834 1064.09C224.705 1053.88 223.189 1051.06 216.01 1044.32ZM246.801 1098.25C257.743 1098.66 264.38 1099.82 273.147 1092.77C277.423 1085.56 280.419 1074.55 278.242 1066.29C276.992 1061.37 273.803 1057.16 269.401 1054.63C262.174 1050.46 254.853 1051.37 246.779 1051.81L246.801 1098.25Z"/><path fill="#05062B" d="M455.046 944.362C461.319 944.696 484.473 951.766 493.35 953.726C513.793 958.239 538.907 960.079 558.422 964.969C564.068 971.401 567.188 975.053 574.088 980.285C594.646 995.875 627.184 995.165 650.799 987.565C664.89 983.03 677.576 976.145 692.628 973.917C688.562 977.122 685.978 978.651 681.479 981.284C631.796 1007.67 591.371 1016.35 534.485 1002.59C507.195 995.985 468.838 969.223 455.046 944.362Z"/><path fill="#764B20" d="M621.842 951.848C623.034 952.385 675.453 953.53 682.193 953.211C722.531 951.299 765.545 948.004 802.915 931.34C834.021 917.47 844.407 900.656 833.653 866.441C827.945 848.282 793.214 833.52 791.419 826.232C795.029 825.59 799.089 827.312 802.069 829.695C822.587 846.137 847.738 862.716 853.948 890.08C856.002 899.127 851.611 911.699 845.99 918.768C815.826 956.704 752.846 963.147 707.995 967.032C694.245 968.223 613.223 968.232 605.878 964.949C609.22 964.273 621.632 964.152 623.462 962.056C623.002 959.267 622.968 958.174 621.412 955.761C613.658 953.977 600.932 959.796 596.521 952.89C602.11 951.292 612.613 954.707 621.842 951.848Z"/><path fill="#05062B" d="M383.086 1043.85C397.668 1043.31 409.974 1047.74 422.836 1053.81L422.832 1081.81L422.527 1081.07C393.769 1012.32 330.737 1072.15 357.601 1124.29C367.902 1144.28 383.83 1150.13 403.997 1139.99C404.178 1128.23 405.586 1119.14 399.65 1109C397.378 1106.6 395.044 1105.35 392.258 1103.59C405.915 1103.69 419.574 1103.56 433.227 1103.2L433.835 1103.97C432.366 1107.26 428.881 1107.67 425.057 1111.32C421.692 1119.65 422.757 1132.33 422.89 1141.66C323.935 1190.25 294.118 1050.12 383.086 1043.85Z"/><path fill="#05062B" d="M895.993 1043.84C892.138 1047.75 887.924 1053.27 887.912 1059.37C888.196 1080.33 886.453 1102.81 888.343 1123.58C890.967 1152.41 936.088 1150.63 935.461 1119.72C935.013 1097.59 937.476 1074.49 934.546 1052.59C934.13 1049.48 931.315 1046.14 929.367 1043.85L947.109 1043.75L950.303 1043.86L950.933 1044.95C949.226 1047.15 946.104 1051.03 945.406 1053.63C936.151 1088.15 964.248 1149.44 909.076 1151.49C835.047 1154.24 883.517 1068.52 857.019 1043.85C870.01 1043.75 883.002 1043.75 895.993 1043.84Z"/><path fill="#05062B" d="M559.311 1044.19C560.668 1045.41 566.078 1057.05 567.216 1059.5L584.973 1098.04C595.071 1119.97 600.772 1136.16 620.332 1151.21C613.068 1151.25 576.999 1152.23 572.437 1150.79C572.827 1146.84 575.363 1144.34 576.786 1140.75C579.618 1133.61 574.913 1123.41 572.004 1116.69L538.598 1116.72C534.392 1130.74 532.548 1140.12 543.333 1151.24C533.31 1151.4 522.933 1151.22 512.881 1151.17C529.71 1138.64 533.701 1119.11 540.183 1100.11L559.311 1044.19ZM540.024 1112.66L558.281 1112.66L570.261 1112.55C567.904 1107.61 554.469 1077.37 552.42 1075.87C548.374 1088.16 544.241 1100.43 540.024 1112.66Z"/><path fill="#05062B" d="M17.0189 1043.77L114.877 1043.7C114.852 1052.27 114.719 1060.83 114.48 1069.4C104.665 1052.41 96.2622 1050.43 77.7325 1048.49L77.7926 1132.66L77.8355 1133.66C78.2322 1142.06 80.2492 1145.69 86.4109 1151.33C73.2276 1151.46 60.0434 1151.44 46.8605 1151.29C47.132 1151.02 47.4018 1150.76 47.67 1150.49C58.7399 1139.38 55.4923 1116.19 55.4339 1101.05L55.3489 1048.15C35.6592 1050.94 27.7718 1051.47 17.0087 1069.87L17.0189 1043.77Z"/><path fill="#764B20" d="M598.348 726.296L598.76 726.104C611.877 719.869 620.339 703.657 636.728 707.741C638.259 708.123 638.197 708.723 639.006 710.251C638.083 718.26 626.367 725.027 628.006 732.544C634.327 736.578 652.987 736.11 656.948 751.283C657.694 754.139 657.331 754.363 656.375 756.844C646.541 765.858 613.181 750.969 606.963 754.941C609.884 762.137 623.022 752.918 623.002 768.655C619.532 770.487 600.825 764.644 596.068 763.177C583.917 770.681 564.372 785.765 551.244 783.179C561.007 773.338 569.679 764.891 578.26 753.984C579.937 750.026 580.916 749.583 580.297 746.027C583.634 739.399 590.495 737.69 590.756 731.277C588.44 726.264 578.966 726.666 571.785 723.816L570.908 723.461C580.097 722.681 589.112 726.431 598.348 726.296Z"/><path fill="#05062B" d="M432.604 1044.12C445.656 1043.97 458.709 1043.98 471.761 1044.13C468.983 1047.01 465.21 1051.12 464.798 1055.18C461.878 1083.89 463.303 1116.14 463.296 1145.02C489.342 1144.95 493.547 1148.06 509.75 1126.65L509.988 1130.39L510.023 1151.44L432.563 1151.27C433.23 1150.66 433.886 1150.03 434.532 1149.4C436.193 1147.75 439.759 1143.51 439.945 1141C442.037 1112.8 442.434 1082 439.785 1053.86C439.517 1051.02 434.448 1045.97 432.604 1044.12Z"/><path fill="#8B6436" d="M483.088 931.265C484.734 931.772 494.177 933.113 497.467 933.839C526.312 940.195 555.483 944.97 584.849 948.143C592.22 948.944 616.512 950.53 621.842 951.848C612.613 954.707 602.11 951.292 596.521 952.89C600.932 959.796 613.658 953.977 621.412 955.761C622.968 958.174 623.002 959.267 623.462 962.056C621.632 964.152 609.22 964.273 605.878 964.949C597.246 964.886 576.724 961.632 567.418 960.103C533.351 954.506 495.481 948.802 462.531 938.941C464.558 938.658 468.934 937.79 470.245 936.459C475.593 931.028 475.795 931.631 483.088 931.265Z"/><path fill="#764B20" d="M693.522 1225.54C691.471 1227.87 690.025 1230.22 688.322 1232.81C687.199 1252.88 689.249 1275.61 687.837 1295.46C685.444 1296.82 684.135 1296.14 680.929 1295.91L638.524 1239.44C638.645 1252.68 637.98 1266.13 638.33 1279.33C638.538 1287.19 639.008 1291.04 644.624 1296.22C642.023 1296.21 630.705 1296.65 629.547 1295.58C635.295 1288.16 634.351 1286.95 634.396 1277.76C634.47 1262.8 634.443 1247.84 634.422 1232.88C632.689 1230.53 629.829 1227.68 627.751 1225.48L645.859 1225.49C657.569 1239.06 672.309 1259.22 683.67 1273.77C683.824 1259.29 687.674 1237.25 678.472 1225.6L693.522 1225.54Z"/><path fill="#8B6436" d="M528.075 716.165C526.655 710.124 522.46 697.112 527.437 692.338C534.986 692.869 544.859 711.838 549.86 718.337C555.858 719.569 565.407 721.264 570.908 723.461L571.785 723.816C578.966 726.666 588.44 726.264 590.756 731.277C590.495 737.69 583.634 739.399 580.297 746.027C567.329 742.261 550.742 734.917 538.446 733.19C535.372 732.759 517.227 748.119 509.734 744.581C509.842 739.741 519.98 730.104 523.956 725.224L516.708 718.596L528.075 716.165Z"/><path fill="#764B20" d="M573.749 1225.39L625.264 1225.36L625.153 1242.38C616.098 1228.21 609.714 1229.52 593.952 1229.8L594.111 1259.09C596.621 1259.06 599.129 1258.95 601.633 1258.76C609.849 1258.17 613.351 1256.51 618.626 1250.45L618.625 1271.7C611.709 1261.47 606.683 1262.57 595.307 1262.86L594.403 1263.49C593.404 1266.89 593.981 1287.05 594.031 1291.9C610.099 1291.98 615.513 1293.63 625.136 1279.48L625.321 1296.25L573.284 1296.13C583.324 1286.86 578.09 1258.9 579.312 1245.68C579.979 1238.46 578.878 1230.86 573.749 1225.39Z"/><path fill="#764B20" d="M536.722 1225.6C548.575 1224.85 555.662 1227.34 566.084 1232.01L565.952 1250.27C562.228 1242.96 557.674 1234.22 549.69 1231.23C536.381 1226.57 525.636 1234.16 521.008 1246.82C515.53 1261.79 518.843 1284.41 535.441 1290.89C541.555 1293.27 547.373 1291.47 553.142 1288.72C553.199 1282.34 553.648 1276.84 552.024 1270.66C550.878 1269.06 548.493 1266.93 547.001 1265.49L547.265 1264.79C553.553 1264.68 567.161 1263.84 572.481 1265.24C563.618 1272.44 565.932 1279.04 566.158 1289.76C550.538 1296.92 532.539 1300.24 517.724 1289.14C510.231 1283.49 505.32 1275.08 504.096 1265.78C501.054 1243.71 515.396 1228.35 536.722 1225.6Z"/><path fill="#764B20" d="M710.883 1225.45C723.298 1224.6 726.156 1225.74 736.856 1231.46L736.727 1247.62C733.046 1237.35 727.473 1227.6 714.826 1229.36C709.567 1230.09 703.383 1237.94 705.674 1242.94C709.352 1250.95 722.61 1252.57 729.596 1257.03C734.55 1259.87 739.733 1263.95 741.235 1269.86C745.222 1285.54 735.451 1292.16 722.18 1295.66C710.584 1296.57 704.385 1295.77 694.384 1290L694.549 1274.71C699.924 1286.51 708.173 1295.85 723.361 1291.22C725.258 1290.64 728.031 1288.02 728.448 1286.03C733.066 1266.6 699.127 1270.85 693.915 1256.28C688.664 1241.6 698.418 1230.73 710.883 1225.45Z"/><path fill="#E3BA87" d="M294.61 852.304C298.723 846.208 296.261 844.766 294.935 838.296C295.815 835.351 295.188 835.751 297.187 834.361C302.094 835.291 306.508 845.665 311.314 849.804L313.796 849.283C335.11 867.926 344.822 874.764 369.468 889.207C364.745 891.239 357.31 889.287 353.646 891.946C353.437 894.671 353.696 894.988 354.638 897.64L354.167 898.646C334.842 891.851 306.828 869.241 294.61 852.304Z"/><path fill="#05062B" d="M507.699 633.019C508.779 632.912 509.861 632.822 510.944 632.75C536.411 631.069 569.47 639.713 542.284 669.503C538.24 673.101 533.281 677.553 527.63 676.184C518.644 668.429 514.35 648.838 506.912 638.701C505.803 637.191 507.05 634.528 507.699 633.019Z"/><path fill="#EFD5AB" d="M294.61 852.304C292.365 849.386 290.415 846.252 288.791 842.949C265.01 794.487 346.239 761 351.703 772.5C348.422 779.113 276.868 788.996 313.796 849.283L311.314 849.804C306.508 845.665 302.094 835.291 297.187 834.361C295.188 835.751 295.815 835.351 294.935 838.296C296.261 844.766 298.723 846.208 294.61 852.304Z"/><path fill="#764B20" d="M346.405 1225.43L374.521 1225.49C373.597 1226.54 370.85 1229.73 370.601 1230.75C368.425 1239.73 382.235 1264.54 386.349 1273.27C390.626 1261.08 396.658 1246.63 399.362 1234.04C400.055 1230.81 398.499 1229.26 396.427 1226.74L395.755 1225.92C399.389 1225.05 406.778 1225.44 410.787 1225.5C407.388 1228.39 406.85 1229.28 404.331 1233.01L382.392 1295.94C374.31 1280.52 356.157 1234.52 346.405 1225.43Z"/><path fill="#B08B59" d="M403.759 905.871C418.563 912.805 444.914 918.853 461.015 924.266C467.06 926.299 477.769 928.406 483.088 931.265C475.795 931.631 475.593 931.028 470.245 936.459C468.934 937.79 464.558 938.658 462.531 938.941C441.353 935.998 416.53 926.061 396.316 918.317C397.108 916.955 396.287 914.933 395.897 912.995C397.436 910.007 400.769 908.25 403.759 905.871Z"/><path fill="#764B20" d="M439.294 1225.91L439.294 1226.29C438.579 1227.29 435.479 1231.73 435.387 1232.68C433.614 1251.02 434.4 1270.3 435.101 1288.73C435.161 1290.29 438.145 1294.03 439.112 1295.92C435.947 1296.48 419.832 1296.18 415.673 1296.17L414.938 1295.41L415.312 1294.92C417.86 1291.53 419.595 1288.68 419.454 1284.28C419.074 1272.38 422.697 1235.53 415.77 1227.37L415.982 1226.38C421.19 1225.5 433.475 1225.88 439.294 1225.91Z"/><path fill="#764B20" d="M473.561 1225.22C483.691 1245.93 497.637 1282.41 513.894 1295.94C506.946 1296.06 488.389 1297.26 483.179 1294.4L482.604 1292.51C484.618 1288.77 487.298 1284.96 485.607 1281.01C484.765 1279.05 482.785 1274.14 481.026 1273.09L480.517 1270.58C478.996 1266.07 471.806 1251.91 469.343 1245.86L467.527 1242.3L473.561 1225.22Z"/><path fill="#D2A86D" d="M369.468 889.207C380.645 893.784 394.074 898.897 403.759 905.871C400.769 908.25 397.436 910.007 395.897 912.995C396.287 914.933 397.108 916.955 396.316 918.317C386.265 915.91 363.423 903.853 354.167 898.646L354.638 897.64C353.696 894.988 353.437 894.671 353.646 891.946C357.31 889.287 364.745 891.239 369.468 889.207Z"/><path fill="#05062B" d="M547.731 616.113C549.552 615.97 551.378 615.92 553.203 615.964C566.671 616.273 578.31 629.731 569.506 637.132L566.73 636.175C558.634 630.11 541.399 623.082 539.841 618.843C542.618 616.468 543.622 616.945 547.731 616.113Z"/><path fill="#05062B" d="M588.696 651.149C593.627 652.685 602.643 664.573 601.879 670.728C599.821 673.23 600.834 672.429 596.705 673.238C578.351 670.994 574.826 664.719 588.696 651.149Z"/><path fill="#764B20" d="M443.032 1296C455.696 1284.97 461.905 1259.17 467.527 1242.3L469.343 1245.86C466.442 1253.6 463.544 1263.26 460.562 1270.59L480.517 1270.58L481.026 1273.09C474.683 1273.4 466.292 1273.18 459.792 1273.2C459.07 1275.75 457.709 1280.39 457.698 1282.98C457.681 1287.18 460.688 1291.58 459.537 1295.41C455.993 1296.78 447.242 1296.11 443.032 1296Z"/><path fill="#764B20" d="M762.278 1268.44C771.019 1268.57 779.701 1266.52 786.706 1269.48C788.771 1272.59 788.066 1272.47 788.078 1276.9C780.031 1276.67 770.01 1278.37 763.698 1275.99C761.478 1273.25 762.275 1272.92 762.278 1268.44Z"/><path fill="#764B20" d="M299.746 1268.4C308.158 1268.57 316.887 1266.75 323.825 1269.23C326.229 1272.08 325.404 1272.16 325.464 1276.9C316.547 1276.63 308.686 1278.53 301.199 1275.93C298.971 1273.23 299.768 1272.86 299.746 1268.4Z"/><path fill="#23150B" fill-opacity="0.97647059" d="M536.837 742.583C550.007 744.749 568.912 753.309 578.26 753.984C569.679 764.891 561.007 773.338 551.244 783.179C550.752 776.746 566.743 763.099 571.596 757.69C560.329 752.414 548.314 747.485 536.837 742.583Z"/><path fill="#1D1D28" fill-opacity="0.96470588" d="M387.234 922.04C395.397 925.409 405.255 940.759 411.849 947.535C418.553 954.424 426.216 961.541 432.409 968.767C421.038 964.264 392.873 933.732 387.234 922.04Z"/><path fill="#1D1D28" d="M762.292 914.472C763.207 908.355 765.582 899.625 767.105 893.396L771.868 896.292C769.644 903.583 766.481 908.343 762.292 914.472Z"/></svg>